<svg width="512.00066" height="70" xmlns="http://www.w3.org/2000/svg">

 <g>
  <title>background</title>
  <rect fill="none" id="canvas_background" height="72" width="514.00066" y="-1" x="-1"/>
 </g>
 <g>
  <title>Layer 1</title>
  <g stroke="null" id="svg_23">
   <path stroke="null" id="svg_1" fill="#fee372" d="m450.941953,14.26652s-7.034332,-6.259841 -9.26594,-2.08751c-2.231608,4.172328 -1.986704,6.946993 1.103216,10.584869"/>
   <path stroke="null" id="svg_2" fill="#cce6f6" d="m499.652041,51.480636c0,7.108677 -8.269539,12.20799 -18.245778,12.20799l-53.293847,0c-4.795098,0 -8.803598,-0.633258 -12.077386,-1.529703c-7.93308,-2.17015 -11.549428,-5.88707 -11.549428,-5.88707l3.543869,-10.046824l8.71891,0.50032l82.90366,4.755287zm0,0"/>
   <path stroke="null" id="svg_3" fill="#fb6572" d="m499.652041,51.480636s-9.712264,4.172328 -22.839457,4.172328c-9.546705,0 -41.592593,-4.987932 -58.358262,-7.708703c-6.287413,-1.017707 -10.424851,-1.719232 -10.424851,-1.719232c-2.516949,-4.101368 2.45515,-18.189375 5.243705,-25.316918c1.472479,-3.759136 4.472371,-6.434996 7.965123,-6.913758c0.325013,-0.044914 0.646976,-0.069164 0.967413,-0.069164c1.760871,0 2.893079,3.458226 4.586811,6.802377c1.587685,3.14025 3.668993,6.178998 7.226595,6.178998c7.350955,0 16.922073,-12.640044 16.922073,-12.640044c18.800437,15.163204 33.353572,21.913483 33.353572,21.913483s12.142236,0.078146 15.095587,3.556134c2.953353,3.477089 2.619184,9.89053 0.261691,11.744499zm0,0"/>
   <path stroke="null" id="svg_4" fill="#9dcae0" d="m418.454322,47.944261l-2.419292,14.214661c-7.93308,-2.17015 -11.549428,-5.88707 -11.549428,-5.88707l3.543869,-10.046824l8.71891,0.50032l1.705941,1.218912zm0,0"/>
   <path stroke="null" id="svg_5" fill="#ea394e" d="m426.792523,20.727567c-4.039018,-5.981386 -11.740927,14.608089 -8.338201,27.217594c-6.287413,-1.017707 -10.424851,-1.720131 -10.424851,-1.720131c-2.516949,-4.100469 2.45515,-18.189375 5.243705,-25.316918c1.472481,-3.759136 4.472371,-6.434099 7.965123,-6.913758c0.325015,-0.044914 0.646976,-0.068267 0.967413,-0.068267c1.760871,-0.000897 2.893079,3.45733 4.586811,6.80148zm0,0"/>
   <path stroke="null" id="svg_6" fill="#4695bc" d="m457.384243,19.271519l-17.833027,23.360547c-6.03564,-4.219935 -14.72861,-7.685349 -21.125123,-9.893225c-4.80883,-1.660846 -8.319892,-2.613881 -8.426705,-2.642625c0.610354,-1.925828 1.262672,-3.809438 1.891337,-5.525977l7.865178,3.023479l2.22169,0.854228c2.561199,0.984472 5.358911,0.598228 7.657657,-1.055434l1.639564,-1.178492c0.805668,0.436546 1.712806,0.692544 2.744305,0.692544c7.350955,0 16.922073,-12.640044 16.922073,-12.640044c2.212533,1.783906 4.366322,3.451041 6.443052,5.004999zm0,0"/>
   <path stroke="null" id="svg_7" fill="#4695bc" d="m499.654328,51.480636s-9.713787,4.171429 -22.840982,4.171429c-2.806104,0 -7.556948,-0.431156 -13.294278,-1.107529l0,-0.001798c0,-3.582183 7.78049,-12.028342 13.687194,-12.644535c1.051335,6.026297 7.089266,4.325928 11.68447,2.471062c4.592915,-1.854868 10.500383,-4.634026 10.500383,-4.634026c2.952587,3.477092 2.61842,9.89053 0.263214,11.745398zm0,0"/>
   <path stroke="null" id="svg_8" fill="#0e708e" d="m419.755902,27.594617c-0.519565,1.584496 -0.975041,3.325288 -1.329809,5.144224c-4.80883,-1.659949 -8.319892,-2.613881 -8.426705,-2.642625c0.610354,-1.925828 1.262672,-3.808541 1.891337,-5.525977l7.865178,3.024378zm0,0"/>
   <path stroke="null" id="svg_9" fill="#fee372" d="m477.206261,41.898202c-5.906704,0.616194 -13.687194,9.062352 -13.687194,12.644535l0,0.001798c-5.082726,-0.602721 -10.939076,-1.396765 -16.90071,-2.255484c0,-3.469903 -2.898421,-6.743094 -7.067141,-9.656087l0,-0.001798l17.83379,-23.360547c15.580056,11.652877 26.91052,16.908485 26.91052,16.908485c2.755749,3.245344 -1.180273,5.099313 -7.089266,5.719098zm0,0"/>
   <path stroke="null" id="svg_10" d="m449.997431,22.95161c1.152806,0.914409 2.661145,-0.465289 2.233133,-2.002178c-0.418855,-1.503655 -2.267465,-1.581803 -2.779401,-0.119466c-0.266267,0.759013 -0.039672,1.667135 0.546268,2.121644zm0,0"/>
   <path stroke="null" id="svg_11" d="m500.441685,38.498362c-1.490026,-1.753366 -4.6097,-2.925571 -9.539837,-3.583082c-2.880109,-0.384448 -5.468011,-0.464393 -6.314114,-0.48056c-1.38169,-0.65302 -3.331771,-1.66444 -5.723598,-3.019885c0.428012,-0.684459 0.380709,-1.650967 -0.14496,-2.270753c-0.580598,-0.682663 -1.520544,-0.682663 -2.10038,0l-0.550083,0.647632c-0.724033,-0.430259 -1.475532,-0.884768 -2.254496,-1.36353l0.025178,-0.029643c0.579837,-0.682663 0.579837,-1.789296 0,-2.472855c-0.579837,-0.682663 -1.520546,-0.682663 -2.100382,0l-0.666812,0.785062c-0.717165,-0.458103 -1.451118,-0.933274 -2.201854,-1.425508l0.089264,-0.105094c0.579837,-0.682663 0.579837,-1.789296 0,-2.472858c-0.579837,-0.682663 -1.520544,-0.682663 -2.10038,0l-0.669101,0.787757c-0.707249,-0.479659 -1.42594,-0.972795 -2.154551,-1.481198l0.04425,-0.0521c0.579837,-0.682663 0.579837,-1.789296 0,-2.472855c-0.579837,-0.682663 -1.519782,-0.682663 -2.100382,0l-0.567629,0.669188c-3.074658,-2.21057 -6.297329,-4.646599 -9.591717,-7.302697c-0.592807,-0.525469 -5.229211,-4.506475 -8.679238,-3.764526c-1.159673,0.249712 -2.100382,0.99525 -2.721418,2.156675c-2.276621,4.255867 -2.280436,7.6081 0.097657,11.158847c-2.229319,1.611443 -4.514333,2.753107 -6.49722,2.753107c-3.493516,0 -5.330682,-3.936089 -6.951172,-7.407791c-1.338203,-2.866286 -2.601637,-5.573584 -4.862998,-5.573584c-0.371554,0 -0.75455,0.026948 -1.137548,0.079944c-3.939074,0.538944 -7.442508,3.572302 -9.143871,7.917093c-1.419073,3.627996 -3.383652,9.003966 -4.682179,14.015251c-1.503761,5.799942 -1.785287,9.709086 -0.859838,12.145115l-3.26921,9.264455c-0.244903,0.69434 -0.086211,1.494673 0.395205,1.988706c0.311281,0.320672 7.831609,7.848827 24.604145,7.848827l53.294608,0c10.842945,0 19.114771,-5.576279 19.696896,-13.106231c1.009374,-1.155138 1.671607,-2.939044 1.847848,-5.047215c0.27771,-3.321694 -0.66071,-6.606561 -2.510083,-8.785693zm-4.670736,1.026688c-2.098093,0.952136 -4.92861,2.208774 -7.363923,3.192347c-1.56861,0.633261 -6.342345,2.559988 -8.51902,1.095855c-0.151063,-0.101502 -0.325013,-0.239831 -0.496676,-0.449122c4.148884,-0.693441 6.485015,-2.039904 7.118256,-4.092384c0.109102,-0.353906 0.183106,-0.779674 0.167085,-1.262028c3.097549,0.184139 6.655151,0.680865 9.094279,1.515331zm-37.598585,-13.081081c0.289917,0.341333 0.669862,0.511997 1.050571,0.511997c0.379945,0 0.759892,-0.170664 1.049809,-0.511997l1.593788,-1.875527c0.728611,0.5111 1.445014,1.007826 2.148447,1.488386l-0.962834,1.132681c-0.579837,0.682663 -0.579837,1.790195 0,2.472858c0.289919,0.34133 0.670626,0.511997 1.050573,0.511997c0.379945,0 0.75989,-0.170666 1.050571,-0.511997l1.535804,-1.808161c0.751499,0.495829 1.483925,0.972795 2.196514,1.430898l-0.95368,1.1228c-0.579837,0.682663 -0.579837,1.790195 0,2.472858c0.290683,0.34133 0.670628,0.511997 1.050573,0.511997c0.379945,0 0.759892,-0.170666 1.050573,-0.511997l1.588447,-1.870137c0.78049,0.483253 1.530464,0.940457 2.248393,1.370714l-1.057438,1.244963c-0.579837,0.682663 -0.579837,1.790192 0,2.472855c0.289917,0.341333 0.670626,0.511999 1.050571,0.511999c0.379945,0 0.759892,-0.170666 1.049809,-0.511999l1.760109,-2.072242c3.546158,2.034516 5.935696,3.226481 6.758911,3.627097c0.160981,0.220968 0.235749,0.379957 0.263978,0.462594c-0.263214,0.423071 -1.893624,1.544974 -6.620819,2.039904c-5.705285,0.597331 -12.997493,7.58295 -14.682835,12.493633c-4.422779,-0.537149 -9.373514,-1.208135 -14.436404,-1.933014c-0.537112,-2.879761 -2.560435,-5.686763 -6.11575,-8.46592l15.81199,-20.716126c0.537875,0.397022 1.070409,0.786858 1.597603,1.167712l-1.076513,1.268317c-0.5806,0.682663 -0.5806,1.790192 -0.000764,2.472855l0.000002,0zm-15.239785,-13.333485c0.177003,-0.331452 0.399019,-0.504813 0.740818,-0.578468c1.26267,-0.273962 3.361527,0.858719 4.992698,2.03272c-1.412969,1.69408 -3.447738,3.907346 -5.692316,5.872698c-1.731881,-2.434233 -1.68,-4.262153 -0.041199,-7.32695zm-28.31052,8.527896c1.270301,-3.244445 3.871173,-5.508011 6.789429,-5.906831c0.270081,-0.036826 0.537112,-0.056588 0.794224,-0.056588c0.504305,0 1.646431,2.446809 2.259836,3.760934c1.016241,2.178235 2.243815,4.806486 4.048174,6.699079c-1.860053,1.188373 -4.051989,1.428203 -6.075314,0.650327l-8.534278,-3.279477c0.231173,-0.609907 0.468447,-1.228793 0.717929,-1.867444zm-3.685776,10.52379c2.506267,0.730269 8.391608,2.535733 14.581364,5.083145c0.162507,0.066469 0.327302,0.097908 0.489809,0.097908c0.614169,0 1.188665,-0.450917 1.402289,-1.172205c0.270081,-0.910814 -0.137331,-1.908761 -0.911717,-2.227637c-6.0303,-2.48094 -11.780601,-4.272931 -14.512699,-5.077755c0.231173,-0.688053 0.476076,-1.400357 0.73624,-2.135117l8.794443,3.379181c1.085667,0.417681 2.205668,0.62338 3.320327,0.62338c1.944741,0 3.873461,-0.626075 5.572535,-1.848581l1.001743,-0.720389c0.786595,0.313486 1.651773,0.492237 2.609266,0.492237c6.633026,0 14.507358,-8.887195 17.138748,-12.1011c1.34049,1.068905 2.659619,2.0929 3.952807,3.076473l-15.85853,20.777208c-2.034769,-1.330295 -4.422779,-2.656098 -7.173188,-3.982799c-0.759128,-0.365585 -1.626595,0.061978 -1.937112,0.955728c-0.311281,0.89375 0.051879,1.914151 0.811008,2.280634c9.249156,4.461561 12.599238,8.115606 13.697114,10.575885c-15.902782,-2.325545 -32.016896,-5.006792 -35.653846,-5.616699c-0.467684,-1.723723 -0.083924,-5.719098 1.939401,-12.459497zm82.614502,26.559184c-3.180708,2.075834 -7.492861,3.219295 -12.143761,3.219295l-53.29461,0c-12.523706,0 -19.522181,-4.486713 -21.807958,-6.268823l2.654279,-7.523665c8.208501,1.377902 55.656681,9.253677 67.854611,9.253677c0.289919,0 0.578311,-0.002695 0.864414,-0.007186c0.820164,-0.014372 1.475532,-0.808418 1.464089,-1.773128c-0.012207,-0.957524 -0.674442,-1.723723 -1.484688,-1.723723c-0.007629,0 -0.014496,0 -0.021361,0c-0.27237,0.004491 -0.546268,0.006287 -0.822453,0.006287c-2.44981,0 -6.430845,-0.336839 -11.275533,-0.883869c0.621036,-1.184779 1.789863,-2.829459 3.559891,-4.567554c2.375042,-2.332731 4.934715,-3.972918 7.082399,-4.58013c0.476076,1.297958 1.222998,2.295905 2.23466,2.976769c1.061253,0.714102 2.312479,0.994353 3.64534,0.994353c2.388013,0 5.035423,-0.900037 7.310519,-1.818936c3.451554,-1.393173 7.675206,-3.323492 9.56883,-4.199276c0.94376,1.615035 1.181035,3.623503 1.056675,5.11638c-0.111389,1.328497 -0.506594,2.443215 -1.044468,2.974074c-1.129155,0.454509 -7.132752,2.744125 -15.497659,3.631588c-0.817111,0.08713 -1.419836,0.936865 -1.34583,1.89888c0.074004,0.962017 0.799564,1.670729 1.612861,1.584498c6.24011,-0.662004 11.171772,-2.054278 13.951173,-2.98665c-0.901035,2.268955 -2.835858,3.838181 -4.121419,4.677139zm0,0"/>
  </g>
  <text font-style="normal" font-weight="bold" stroke="null" transform="matrix(2.2021954593122226,0,0,2.509214785932234,-274.5836227033445,-55.56131812478732) " xml:space="preserve" text-anchor="start" font-family="Euphoria, sans-serif" font-size="24" id="svg_24" y="46.419268" x="129.290761" stroke-opacity="null" stroke-width="77" fill="#ffffff">SHOES STORE</text>
 </g>
</svg>